<?xml version="1.0" encoding="utf-8"?>
<!-- Generator: Adobe Illustrator 15.1.0, SVG Export Plug-In  -->
<!DOCTYPE svg PUBLIC "-//W3C//DTD SVG 1.1 Basic//EN" "http://www.w3.org/Graphics/SVG/1.1/DTD/svg11-basic.dtd" [
	<!ENTITY ns_flows "http://ns.adobe.com/Flows/1.0/">
]>
<svg version="1.1" baseProfile="basic"
	 xmlns="http://www.w3.org/2000/svg" xmlns:xlink="http://www.w3.org/1999/xlink" xmlns:a="http://ns.adobe.com/AdobeSVGViewerExtensions/3.0/"
	 x="0px" y="0px" width="684px" height="302px" viewBox="0 0 684 302" enable-background="new 0 0 684 302" xml:space="preserve">
<defs>
</defs>
<path fill="#FFFFFF" d="M0,15.923h34.844V182.98H0V15.923z M108.109,15.923h34.367V182.98h-34.367v-66.582H54.652L38.899,85.374
	h69.21V15.923z"/>
<path fill="#FFFFFF" d="M271.108,15.923l0.239,27.923h-78.516l-0.239,111.45h78.516v27.684H159.18V15.923H271.108z M251.3,116.398
	h-37.229l-15.513-31.025H251.3V116.398z"/>
<path fill="#FFFFFF" d="M287.811,15.923h33.412V182.98h-33.412V15.923z M326.234,149.568h73.505v33.412h-54.891L326.234,149.568z"/>
<path fill="#FFFFFF" d="M411.671,15.923h33.412V182.98h-33.412V15.923z M450.094,149.568H523.6v33.412h-54.891L450.094,149.568z"/>
<path fill="#FFFFFF" d="M682.781,92.813c-0.054-0.431-0.054-0.862-0.108-1.292c-0.134-1.616-0.322-3.231-0.537-4.82
	c-0.055-0.377-0.108-0.754-0.162-1.13c-0.08-0.62-0.188-1.239-0.296-1.858c-0.27-1.589-0.593-3.177-0.942-4.738
	c-0.27-1.158-0.565-2.289-0.889-3.42c-0.216-0.78-0.431-1.561-0.674-2.315c-0.241-0.808-0.43-1.642-0.673-2.423
	c-0.727-2.127-1.507-4.227-2.342-6.246c-0.269,0.43-0.512,0.861-0.781,1.265c-0.188,0.323-0.403,0.646-0.618,0.942
	c-0.539,0.835-1.186,1.804-1.886,2.72c-0.564,0.78-1.184,1.615-1.83,2.45l-1.104,1.453c-0.323,0.458-0.619,0.889-0.943,1.266
	c-2.207,2.746-4.657,5.465-7.35,8.158c-2.611,2.584-5.438,5.142-8.562,7.699c-1.427,1.185-2.854,2.316-4.308,3.447
	c0.404,1.588,0.539,3.527,0.054,5.761c-0.054,0.323-0.134,0.7-0.188,1.104c-0.027,1.373-0.081,2.746-0.216,4.092
	c-0.027,0.243-0.055,0.485-0.08,0.727c-0.162,1.562-0.351,3.15-0.62,4.685c0,0.054-0.027,0.134-0.027,0.188
	c-0.619,3.473-1.534,6.866-2.746,10.177c-2.477,6.677-5.842,12.466-10.149,17.419c-1.051,1.212-2.154,2.343-3.339,3.447
	c-0.026,0.026-0.054,0.08-0.107,0.107c-3.5,3.285-7.484,6.004-11.927,8.131c-5.034,2.396-10.5,3.823-16.396,4.173
	c-1.077,0.108-2.181,0.135-3.311,0.135c-7.162,0-13.704-1.454-19.682-4.308c-1.454-0.7-2.881-1.454-4.254-2.289
	c-0.592,0.323-1.158,0.673-1.75,1.023c-0.996,0.62-2.019,1.266-3.015,1.885c-0.135,0.081-0.297,0.108-0.432,0.162
	c-0.35,0.188-0.727,0.377-1.076,0.592c-0.351,0.215-0.7,0.458-1.051,0.646c-1.022,0.565-2.072,1.077-3.096,1.642
	c-0.35,0.188-0.619,0.512-0.969,0.7c-1.239,0.619-2.478,1.238-3.716,1.857c-0.134,0.055-0.215,0.162-0.323,0.216
	c-0.43,0.242-0.861,0.512-1.292,0.727c-0.404,0.188-0.808,0.35-1.212,0.539c-1.05,0.592-2.073,1.211-3.15,1.75
	c-0.564,0.296-0.941-0.081-0.834-0.7c0.135-0.592,0.215-1.186,0.351-1.75c0.08-0.485,0.215-0.969,0.322-1.454
	c0.108-0.485,0.188-0.969,0.296-1.454c0.055-0.323,0.108-0.619,0.162-0.915c0.323-1.239,0.646-2.477,0.942-3.716
	c0.377-1.615,0.727-3.23,1.104-4.846c0.134-0.619,0.241-1.265,0.402-1.884c0.297-1.131,0.674-2.262,0.97-3.393
	c0.135-0.538,0.188-1.103,0.323-1.669c0.055-0.323,0.188-0.619,0.296-0.942c0.377-1.266,0.754-2.504,1.158-3.742
	c0.027-0.081,0.054-0.135,0.08-0.216c-2.423-3.581-4.415-7.538-6.003-11.873c-2.074-5.573-3.258-11.415-3.608-17.527
	c-0.081-1.211-0.107-2.45-0.107-3.715c0-7.485,1.239-14.565,3.716-21.242c2.45-6.677,5.869-12.493,10.257-17.42
	c4.362-4.953,9.531-8.83,15.508-11.711c4.012-1.912,8.266-3.177,12.788-3.796c0.512-1.696,1.32-2.935,1.75-3.554
	c0.351-0.7,0.728-1.373,1.131-2.046l0.377-0.727c0.593-1.077,1.186-2.154,1.805-3.231c0.538-0.969,1.185-2.019,1.857-3.069
	l0.7-1.131l0.323-0.511l1.373-2.343c0.296-0.484,0.619-0.969,0.941-1.427l1.051-1.48c0.889-1.266,1.804-2.531,2.772-3.716
	c0.835-0.996,1.669-1.992,2.504-2.961c0.915-1.05,1.805-2.073,2.639-2.989c0.377-0.43,0.78-0.861,1.185-1.265
	c-4.388-0.727-8.885-1.077-13.515-1.077c-11.767,0-22.75,2.235-32.928,6.704c-10.177,4.442-19.008,10.554-26.491,18.361
	c-7.485,7.808-13.327,16.908-17.527,27.327c-3.689,9.073-5.735,18.658-6.22,28.754v0.161c-0.08,1.454-0.107,2.908-0.107,4.389
	c0,11.765,2.101,22.857,6.327,33.277c4.2,10.419,10.042,19.545,17.527,27.327c7.483,7.807,16.314,13.919,26.491,18.388
	c10.178,4.442,21.161,6.678,32.928,6.678c9.584,0,18.603-1.535,27.11-4.523c0.189-0.054,0.377-0.135,0.566-0.188
	c1.021-0.377,2.019-0.754,3.015-1.157c5.358-2.073,10.474-4.658,15.266-7.862c7.699-5.169,14.35-11.415,19.923-18.738
	c5.573-7.295,9.854-15.508,12.896-24.581c0.243-0.781,0.432-1.615,0.673-2.396c0.243-0.781,0.458-1.562,0.674-2.342
	c0.323-1.131,0.619-2.262,0.889-3.42c0.35-1.561,0.673-3.123,0.942-4.711c0.107-0.646,0.216-1.266,0.296-1.885
	c0.296-1.965,0.539-3.957,0.699-5.95c0.055-0.43,0.055-0.861,0.108-1.292c0.135-2.181,0.242-4.388,0.242-6.623v-0.027
	C683.023,97.201,682.916,94.994,682.781,92.813"/>
<path fill="#FDD100" d="M151.748,204.593h14.895v12.412l-44.546,67.165l-25.238-37.928v54.889H77.414v-96.538h14.894l29.789,44.823
	L151.748,204.593z M147.197,301.131v-50.752l19.446-13.375v64.127H147.197z"/>
<path fill="#FDD100" d="M269.937,203.354c6.802,0,13.146,1.308,19.032,3.93c5.882,2.618,10.985,6.16,15.308,10.617
	c4.32,4.461,7.699,9.702,10.136,15.722c2.436,6.024,3.655,12.437,3.655,19.24c0,5.792-0.875,11.309-2.62,16.549
	c-1.749,5.241-4.231,9.978-7.447,14.207c-3.22,4.229-7.058,7.838-11.517,10.825c-4.459,2.986-9.356,5.125-14.687,6.412l-9.653-16.41
	c3.861-0.275,7.377-1.311,10.549-3.104c3.172-1.792,5.906-4.091,8.207-6.896c2.296-2.803,4.089-6.068,5.378-9.79
	c1.286-3.725,1.931-7.655,1.931-11.792c0-4.322-0.713-8.411-2.139-12.272c-1.425-3.861-3.378-7.22-5.86-10.069
	s-5.448-5.101-8.896-6.756c-3.448-1.655-7.24-2.482-11.377-2.482c-4.137,0-7.931,0.827-11.379,2.482
	c-3.447,1.655-6.435,3.906-8.964,6.756c-2.528,2.85-4.505,6.208-5.93,10.069c-1.425,3.861-2.137,7.95-2.137,12.272
	c0,4.321,0.712,8.414,2.137,12.275c1.425,3.861,3.402,7.216,5.93,10.065c2.529,2.851,5.517,5.105,8.964,6.761
	c3.448,1.654,7.242,2.481,11.379,2.481v17.925c-6.805,0-13.149-1.283-19.032-3.857c-5.884-2.574-10.987-6.116-15.308-10.621
	c-4.323-4.505-7.701-9.77-10.137-15.79c-2.437-6.021-3.654-12.437-3.654-19.239c0-6.804,1.217-13.216,3.654-19.24
	c2.436-6.02,5.814-11.261,10.137-15.722c4.321-4.457,9.424-7.999,15.308-10.617C256.787,204.662,263.131,203.354,269.937,203.354"/>
<path fill="#FDD100" d="M419.982,203.354c6.802,0,13.146,1.308,19.032,3.93c5.882,2.618,10.985,6.16,15.308,10.617
	c4.32,4.461,7.699,9.702,10.137,15.722c2.436,6.024,3.654,12.437,3.654,19.24c0,5.792-0.875,11.309-2.62,16.549
	c-1.749,5.241-4.23,9.978-7.446,14.207c-3.221,4.229-7.059,7.838-11.518,10.825c-4.459,2.986-9.355,5.125-14.687,6.412l-9.653-16.41
	c3.861-0.275,7.377-1.311,10.549-3.104c3.172-1.792,5.906-4.091,8.207-6.896c2.296-2.803,4.089-6.068,5.378-9.79
	c1.286-3.725,1.932-7.655,1.932-11.792c0-4.322-0.713-8.411-2.14-12.272c-1.425-3.861-3.378-7.22-5.859-10.069
	c-2.482-2.85-5.448-5.101-8.896-6.756s-7.24-2.482-11.377-2.482s-7.931,0.827-11.379,2.482c-3.447,1.655-6.435,3.906-8.964,6.756
	c-2.528,2.85-4.505,6.208-5.93,10.069c-1.426,3.861-2.138,7.95-2.138,12.272c0,4.321,0.712,8.414,2.138,12.275
	c1.425,3.861,3.401,7.216,5.93,10.065c2.529,2.851,5.517,5.105,8.964,6.761c3.448,1.654,7.242,2.481,11.379,2.481v17.925
	c-6.805,0-13.148-1.283-19.032-3.857s-10.986-6.116-15.308-10.621c-4.323-4.505-7.701-9.77-10.137-15.79
	c-2.438-6.021-3.654-12.437-3.654-19.239c0-6.804,1.217-13.216,3.654-19.24c2.436-6.02,5.813-11.261,10.137-15.722
	c4.321-4.457,9.424-7.999,15.308-10.617C406.834,204.662,413.178,203.354,419.982,203.354"/>
<path fill="#FDD100" d="M543.412,204.593l62.198,89.644v6.895h-20.136l-42.063-60.681v60.681h-20.135v-96.538H543.412z
	 M585.475,204.593h20.136v72.267l-20.136-14.479V204.593z"/>
<path fill="#FFFFFF" d="M683.751,103.151c0.026,1.589-0.027,3.177-0.162,4.765c-0.161,1.858-0.43,3.716-0.673,5.6
	c-0.216,1.589-0.377,3.177-0.646,4.739c-0.215,1.238-0.564,2.45-0.86,3.661c-0.108,0.404-0.189,0.835-0.298,1.239
	c-0.322,1.13-0.646,2.288-0.995,3.446c-0.297,0.969-0.593,1.965-0.916,2.935c-0.296,0.915-0.592,1.83-0.941,2.719
	c-0.35,0.915-0.7,1.804-1.104,2.692c-0.673,1.481-1.399,2.962-2.1,4.442c-0.296,0.673-0.592,1.347-0.969,1.966
	c-1.212,2.1-2.423,4.227-3.716,6.273c-1.104,1.804-2.288,3.527-3.5,5.25c-0.512,0.727-1.157,1.346-1.724,2.019
	c-0.296,0.323-0.564,0.674-0.86,1.023c-1.293,1.481-2.531,2.989-3.851,4.442c-0.862,0.942-1.75,1.831-2.692,2.692
	c-1.104,1.05-2.288,1.992-3.446,2.988c-0.673,0.592-1.319,1.212-1.992,1.75c-0.673,0.566-1.373,1.131-2.1,1.615
	c-1.239,0.889-2.505,1.696-3.742,2.558c-0.943,0.619-1.858,1.319-2.827,1.912c-0.889,0.565-1.831,1.023-2.747,1.534
	c-0.403,0.243-0.78,0.484-1.157,0.727c-0.162,0.081-0.269,0.216-0.431,0.271c-1.185,0.564-2.396,1.103-3.608,1.669
	c-0.43,0.188-0.86,0.43-1.292,0.619c-0.511,0.241-0.996,0.458-1.508,0.673c-0.457,0.188-0.942,0.377-1.399,0.538
	c-1.023,0.377-2.073,0.754-3.123,1.131c-0.97,0.377-1.966,0.781-2.961,1.077c-3.636,1.022-7.217,2.208-10.985,2.666
	c-2.234,0.269-4.442,0.619-6.65,0.915c-1.992,0.241-3.983,0.403-5.977,0.296c-1.643-0.081-3.284,0.135-4.927,0.054
	c-2.207-0.108-4.415-0.404-6.623-0.592c-0.484-0.054-0.996-0.054-1.48-0.108c-0.646-0.107-1.266-0.322-1.912-0.35
	c-1.318-0.054-2.558-0.404-3.823-0.673c-0.564-0.108-1.104-0.242-1.614-0.351c-0.217-0.054-0.404-0.107-0.594-0.162
	c-1.237-0.296-2.504-0.537-3.715-0.86c-1.454-0.377-2.881-0.835-4.28-1.292c-0.808-0.271-1.589-0.674-2.396-1.024
	c-0.108-0.025-0.188-0.08-0.296-0.134c-0.942-0.323-1.885-0.646-2.8-1.023c-1.373-0.593-2.72-1.212-4.065-1.885
	c-0.997-0.458-1.938-1.022-2.908-1.561c-1.292-0.7-2.611-1.374-3.877-2.127c-1.238-0.754-2.449-1.535-3.607-2.37
	c-2.101-1.507-4.2-3.042-6.246-4.63c-1.023-0.781-1.911-1.724-2.881-2.585c-0.404-0.377-0.861-0.728-1.238-1.104
	c-1.508-1.507-3.015-2.988-4.442-4.55c-1.212-1.319-2.315-2.746-3.474-4.146c-0.942-1.131-1.884-2.261-2.771-3.446
	c-0.675-0.915-1.239-1.912-1.831-2.854c-0.594-0.915-1.186-1.804-1.724-2.719c-0.7-1.185-1.32-2.369-1.993-3.554
	c-0.053-0.108-0.106-0.242-0.188-0.35c-0.566-0.808-0.969-1.669-1.319-2.585c-0.593-1.507-1.399-2.934-2.1-4.388
	c-0.162-0.323-0.216-0.7-0.351-1.05c-0.458-1.158-0.997-2.288-1.319-3.473c-0.861-3.042-1.885-6.058-2.558-9.181
	c-0.835-3.796-1.346-7.646-1.831-11.496c-0.35-2.935-0.269-5.896-0.322-8.858c-0.027-1.292,0.026-2.584,0.081-3.877
	c0.026-0.43,0.079-0.834,0.134-1.265c0-0.108,0.027-0.242,0.054-0.35v-0.161c0.081-0.539,0.162-1.077,0.215-1.616
	c0.108-0.727,0.216-1.481,0.297-2.207c0.055-0.377,0.08-0.754,0.161-1.158c0.108-0.7,0.243-1.4,0.351-2.1
	c0.026-0.081,0.054-0.135,0.054-0.216c0.242-1.346,0.404-2.692,0.7-4.011c0.269-1.212,0.646-2.396,0.969-3.581
	c0.027-0.081,0.081-0.161,0.108-0.242c0.241-1.615,0.86-3.096,1.399-4.604c0.754-1.965,1.427-3.985,2.208-5.95
	c0.7-1.723,1.48-3.419,2.342-5.061c1.186-2.181,2.45-4.335,3.716-6.462c0.484-0.808,1.076-1.562,1.615-2.342
	c1.051-1.535,2.101-3.097,3.203-4.631c0.513-0.7,1.158-1.319,1.725-1.992c1.184-1.347,2.342-2.746,3.525-4.066
	c0.781-0.834,1.616-1.615,2.45-2.396c1.131-1.077,2.289-2.154,3.447-3.204c0.915-0.834,1.856-1.642,2.827-2.396
	c0.753-0.592,1.561-1.077,2.342-1.642c0.538-0.404,1.05-0.916,1.642-1.292c1.077-0.754,2.208-1.454,3.313-2.181
	c0.215-0.135,0.402-0.269,0.592-0.404c0.485-0.269,0.969-0.539,1.427-0.835c0.485-0.296,0.942-0.673,1.454-0.915
	c0.781-0.377,1.588-0.7,2.234-1.292c0.135-0.135,0.377-0.135,0.565-0.216c0.511-0.242,1.023-0.484,1.508-0.754
	c0.135-0.053,0.242-0.188,0.376-0.242c1.347-0.592,2.721-1.185,4.066-1.777c0.807-0.35,1.588-0.807,2.423-1.05
	c2.692-0.781,5.277-1.777,7.969-2.504c4.174-1.157,8.373-1.938,12.628-2.503c3.177-0.404,6.381-0.512,9.584-0.458
	c0.35,0,0.699-0.054,1.05-0.054c1.912,0.081,3.823,0.135,5.734,0.242c0.754,0.027,1.509,0.189,2.263,0.27
	c0.134,0.026,0.241,0.026,0.376,0.026c-0.834,0.97-1.669,1.966-2.503,2.962c-0.971,1.185-1.886,2.45-2.773,3.715l-1.05,1.481
	c-0.323,0.458-0.646,0.942-0.943,1.427l-1.373,2.342c-0.377,0-0.727-0.027-1.104-0.027c-1.266-0.027-2.53-0.215-3.796-0.161
	c-2.907,0.188-5.815,0.458-8.724,0.727c-0.969,0.107-1.911,0.377-2.881,0.592c-1.615,0.323-3.229,0.592-4.846,0.969
	c-1.157,0.296-2.288,0.727-3.419,1.104c-0.485,0.162-0.942,0.296-1.427,0.458c-0.809,0.296-1.615,0.619-2.424,0.915
	c-0.808,0.296-1.642,0.566-2.449,0.916c-1.4,0.673-2.801,1.4-4.174,2.126c-1.131,0.566-2.261,1.158-3.364,1.804
	c-0.862,0.539-1.697,1.158-2.531,1.75c-0.539,0.35-1.077,0.7-1.588,1.077c-0.943,0.646-1.858,1.293-2.747,1.966
	c-0.484,0.35-0.915,0.78-1.4,1.184c-0.834,0.7-1.695,1.4-2.529,2.127c-0.485,0.458-0.916,0.969-1.373,1.454
	c-1.186,1.239-2.397,2.45-3.555,3.715c-0.377,0.404-0.673,0.916-1.05,1.347c-2.234,2.503-4.039,5.276-5.815,8.076
	c-0.646,1.05-1.185,2.181-1.75,3.258c-0.674,1.265-1.347,2.504-1.992,3.769c-0.242,0.485-0.432,1.023-0.619,1.535
	c-0.351,0.942-0.7,1.885-1.05,2.854c-0.351,0.969-0.673,1.938-1.023,2.908c-0.027,0.08-0.081,0.161-0.107,0.269
	c-0.297,1.104-0.593,2.234-0.862,3.338c-0.349,1.427-0.699,2.827-1.023,4.254c-0.08,0.296-0.08,0.619-0.134,0.942
	c-0.269,2.369-0.566,4.739-0.862,7.135c0,0.161-0.026,0.323,0,0.484c0.027,0.539,0.404,0.808,0.916,0.62
	c0.135-0.027,0.296-0.108,0.404-0.189c1.776-1.696,5.896-1.077,7.619,0.512c0.834,0.781,1.346,1.723,1.938,2.638
	c0.35,0.512,0.35,1.266,0.403,1.912c0.108,1.104,0.135,1.184,1.158,1.561c1.022,0.35,2.046,0.727,2.854,1.508
	c0.889,0.808,1.023,1.346,0.242,2.154c-0.835,0.834-1.292,1.857-1.804,2.854c-0.054,0.161,0,0.377,0,0.592
	c0.188-0.027,0.215-0.027,0.242-0.027c0.484-0.511,0.942-1.05,1.427-1.535c0.458-0.484,0.889-0.969,1.4-1.346
	c1.077-0.861,2.208-1.642,3.607-1.938c0.027,0,0.081-0.027,0.108-0.027c0.834-0.189,1.642-0.377,2.476-0.592
	c1.374-0.35,2.747-0.081,4.147-0.054c0.106,0,0.242,0.027,0.377,0.054c2.853,0.834,5.384,2.18,7.269,4.576
	c1.373,1.697,2.342,3.527,2.584,5.708c0.027,0.35,0.162,0.646,0.297,1.05c0.27-0.107,0.431-0.134,0.593-0.215
	c0.431-0.189,0.834-0.404,1.237-0.619c0.296-0.189,0.594-0.377,0.835-0.62c0.432-0.404,1.051-0.511,1.588-0.215
	c0,0.404-0.322,0.565-0.618,0.646c-0.432,0.162-0.674,0.431-0.97,0.781c-0.458,0.538-1.05,0.969-1.562,1.481
	c-0.7,0.7-1.373,1.427-2.02,2.18c-0.969,1.158-1.75,2.45-2.342,3.85c-0.323,0.727-0.754,1.4-1.104,2.1
	c-0.055,0.108-0.081,0.189-0.108,0.27c-0.484,1.238-0.996,2.503-1.454,3.769c-0.323,0.888-0.564,1.857-0.834,2.773
	c-0.269,0.808-0.539,1.642-0.781,2.477c-0.026,0.081-0.054,0.134-0.081,0.215c-0.403,1.239-0.779,2.477-1.156,3.743
	c-0.108,0.323-0.243,0.619-0.296,0.942c-0.136,0.565-0.189,1.131-0.324,1.669c-0.296,1.131-0.673,2.262-0.969,3.392
	c-0.161,0.62-0.27,1.266-0.404,1.885c-0.377,1.615-0.728,3.231-1.104,4.846c-0.296,1.239-0.618,2.477-0.941,3.715
	c-0.055,0.297-0.108,0.593-0.161,0.916c-0.108,0.484-0.189,0.969-0.296,1.453c-0.108,0.484-0.243,0.97-0.324,1.454
	c-0.134,0.565-0.215,1.157-0.35,1.75c-0.107,0.619,0.27,0.996,0.835,0.7c1.077-0.539,2.1-1.158,3.149-1.75
	c0.404-0.188,0.809-0.35,1.212-0.539c0.431-0.215,0.861-0.484,1.292-0.727c0.107-0.055,0.188-0.161,0.323-0.215
	c1.238-0.619,2.478-1.239,3.715-1.858c0.351-0.188,0.619-0.511,0.97-0.7c1.023-0.564,2.073-1.077,3.097-1.642
	c0.35-0.189,0.7-0.431,1.05-0.646c0.35-0.216,0.728-0.404,1.077-0.593c0.134-0.054,0.296-0.08,0.43-0.161
	c0.997-0.619,2.021-1.266,3.017-1.885c0.592-0.35,1.156-0.7,1.75-1.023c0.403-0.269,0.834-0.512,1.237-0.754
	c0.108-0.054,0.217-0.107,0.296-0.161c0.89-0.619,1.777-1.239,2.666-1.858c1.373-0.942,2.773-1.858,4.119-2.8
	c0.351-0.269,0.646-0.619,0.97-0.888c0.458-0.377,0.941-0.673,1.372-1.023c0.674-0.566,1.347-1.131,2.02-1.724
	c1.104-0.996,2.02-2.153,2.827-3.392c0.646-1.023,1.185-2.127,1.804-3.15c0.377-0.619,0.754-1.184,0.835-1.911
	c0-0.135,0.215-0.27,0.351-0.404c0.511,0.431,0.564,1.077,0.269,1.642c-0.188,0.323-0.296,0.7-0.431,1.05
	c-0.377,1.077-0.674,2.181-1.131,3.231c-0.512,1.131-1.157,2.207-1.67,3.365c-0.106,0.269-0.054,0.727,0.108,0.969
	c0.135,0.162,0.646,0.243,0.835,0.108c1.104-0.727,2.396-0.781,3.634-0.861c0.996-0.081,2.046,0.188,3.043,0.403
	c1.319,0.324,2.449,1.077,3.419,2.02c0.861,0.861,1.724,1.75,2.02,2.988c0.081,0.377,0.242,0.727,0.377,1.104
	c0.35,0.861,0.511,1.723,0.377,2.665c-0.081,0.485,0,0.997-0.108,1.481c-0.241,0.889-0.458,1.804-0.86,2.612
	c-0.297,0.592-0.7,1.211-1.131,1.75c-0.136,0.16-0.297,0.322-0.432,0.456c-0.754,0.728-1.48,1.509-2.611,1.696
	c-0.674,0.108-1.238,0.647-1.992,0.512c-0.081-0.026-0.161,0.081-0.351,0.216c0.243,0.081,0.377,0.216,0.485,0.188
	c0.808-0.135,1.346,0.377,1.857,0.809c0.699,0.592,0.808,0.592,1.589,0.134c0.754-0.458,1.534-0.969,2.368-1.185
	c0.781-0.162,1.643,0.026,2.45,0.08c1.481,0.108,2.64,0.943,3.555,1.993c0.618,0.728,1.346,1.507,1.373,2.638
	c0.026,0.593,0.618,0.97,1.157,0.809c1.454-0.377,2.961-0.7,4.389-1.186c1.966-0.673,3.903-1.427,5.842-2.207
	c1.023-0.403,1.993-0.889,2.962-1.347c0.242-0.106,0.512-0.161,0.727-0.269c0.458-0.242,0.915-0.458,1.373-0.7
	c0.216-0.135,0.432-0.296,0.646-0.432c1.077-0.564,2.181-1.104,3.23-1.723c0.377-0.215,0.646-0.646,1.023-0.807
	c1.238-0.513,2.235-1.348,3.231-2.208c0.537-0.458,1.211-0.835,1.804-1.265c1.373-1.05,2.719-2.127,3.93-3.366
	c0.97-0.969,1.993-1.858,2.962-2.8c0.404-0.377,0.781-0.754,1.131-1.158c2.827-3.123,5.33-6.515,7.674-10.042
	c0.995-1.507,1.776-3.204,2.638-4.846c0.377-0.673,0.727-1.319,1.05-2.019c0.404-0.943,0.808-1.885,1.185-2.827
	c0.378-0.889,0.728-1.777,1.077-2.666c0.054-0.134,0.107-0.269,0.161-0.403c0.404-1.239,0.862-2.45,1.239-3.689
	c0.296-0.969,0.538-1.965,0.781-2.988c0.35-1.643,0.699-3.312,1.022-4.981c0.134-0.7,0.107-1.427,0.215-2.154
	c0.432-2.45,0.565-4.954,0.619-7.431c0.027-1.938-0.026-3.85-0.107-5.788c-0.027-0.781-0.161-1.561-0.27-2.369
	c-0.269-2.073-0.564-4.146-0.86-6.22c-0.055-0.323-0.108-0.7-0.27-0.996c-0.108-0.215-0.189-0.403-0.243-0.619
	c2.692-2.692,5.143-5.411,7.351-8.158c0.322-0.376,0.619-0.807,0.941-1.265l1.104-1.454c0.646-0.834,1.266-1.669,1.831-2.45
	c0.699-0.915,1.346-1.884,1.885-2.719c0.215-0.296,0.43-0.619,0.619-0.942c0.781,1.696,1.561,3.365,2.288,5.061
	c0.539,1.212,1.022,2.45,1.454,3.716c0.322,0.996,0.484,2.073,0.835,3.042c0.807,2.1,1.237,4.308,1.75,6.488
	c0.08,0.377,0.106,0.808,0.161,1.185c0.08,0.431,0.026,0.915,0.216,1.265c0.026,0.027,0.026,0.081,0.054,0.108
	c0.646,1.373,0.619,2.827,0.807,4.281c0.296,2.18,0.432,4.415,0.566,6.623C683.643,99.463,683.724,101.293,683.751,103.151"/>
<path fill="#FFFFFF" d="M677.289,16.378c-0.054-0.781-0.135-1.561-0.216-2.315c-0.026-0.35-0.053-0.7-0.026-1.05
	c0.135-1.912-0.27-3.77-0.674-5.627c-0.08-0.269-0.269-0.539-0.296-0.835c-0.134-1.938-0.861-3.769-1.265-5.654
	c-0.162-0.781-0.458-0.942-1.267-0.888c-1.13,0.081-2.288,0.161-3.419,0.242c-0.754,0.054-1.534-0.027-2.261,0.108
	c-2.962,0.511-6.004,0.592-8.912,1.454c-1.615,0.457-3.311,0.646-4.954,1.077c-1.427,0.377-2.854,0.888-4.253,1.373
	c-0.646,0.215-1.266,0.484-1.912,0.727c-0.699,0.269-1.373,0.511-2.072,0.78c-0.485,0.189-0.97,0.377-1.428,0.593
	c-0.458,0.188-0.888,0.43-1.346,0.646c-1.292,0.592-2.612,1.211-3.904,1.804c-0.081,0.053-0.161,0.107-0.242,0.161
	c-1.131,0.673-2.262,1.373-3.419,2.019c-0.27,0.162-0.593,0.27-0.835,0.431c-0.861,0.62-1.695,1.239-2.558,1.858
	c-0.107,0.081-0.215,0.108-0.323,0.188c-0.807,0.485-1.642,0.943-2.396,1.508s-1.427,1.212-2.127,1.804
	c-0.458,0.404-0.942,0.781-1.4,1.157c-0.538,0.485-1.077,0.943-1.642,1.401c-0.594,0.511-1.186,0.996-1.724,1.534
	c-0.808,0.781-1.589,1.589-2.343,2.423c-1.642,1.831-3.284,3.689-4.846,5.6c-1.13,1.373-2.127,2.881-3.177,4.335
	c-0.188,0.296-0.431,0.565-0.593,0.861c-0.619,1.023-1.212,2.046-1.831,3.07c-0.807,1.319-1.642,2.584-2.396,3.93
	c-0.754,1.32-1.481,2.666-2.207,3.985c-0.404,0.7-0.781,1.4-1.158,2.1c-0.296,0.512-0.727,0.996-0.808,1.508
	c-0.108,0.969-0.861,1.615-1.104,2.53c-0.161,0.593-0.483,1.185-0.754,1.75c-0.377,0.781-0.78,1.535-1.13,2.316
	c-0.512,1.131-0.835,2.315-1.481,3.365c-0.403,0.7-0.889,0.889-1.642,0.996c-1.266,0.189-2.531,0.485-3.77,0.835
	c-1.104,0.296-2.153,0.727-3.23,1.104c-0.404,0.161-0.781,0.323-1.158,0.511c-0.539,0.269-1.05,0.566-1.562,0.835
	c-0.403,0.215-0.861,0.35-1.266,0.565c-0.377,0.216-0.727,0.458-1.104,0.7c-0.188,0.108-0.404,0.216-0.565,0.35
	c-0.97,0.673-1.938,1.32-2.854,2.02c-0.673,0.511-1.292,1.023-1.912,1.588c-0.565,0.538-1.103,1.131-1.615,1.723
	c-0.835,0.889-1.695,1.75-2.423,2.719c-1.158,1.481-2.235,3.043-3.285,4.604c-1.05,1.589-2.019,3.204-3.042,4.819
	c-0.296,0.485-0.592,0.97-0.888,1.481c-0.377,0.646-0.7,1.319-1.077,1.965c-0.458,0.808-0.943,1.616-1.399,2.451
	c-0.539,0.942-1.023,1.911-1.535,2.88c-0.242,0.458-0.484,0.916-0.7,1.373c-1.077,1.993-2.396,3.85,0.564,4.281
	c2.854,0.431,5.708,0.862,8.563,1.265c1.399,0.189,2.772,0.431,4.173,0.593c1.023,0.107,1.992,0.457,3.042,0.565
	c1.023,0.108,2.073,0.135,3.096,0.296c1.239,0.162,2.962,0.269,2.559,1.939c-0.242,0.969-0.432,1.938-0.646,2.907
	c-0.269,1.077-0.377,2.235-0.7,3.339c-0.161,0.538,0.188,1.077,0.755,1.238c1.104,0.323,2.153,0.593,3.177,0.996
	c0.43,0.189,0.834,0.377,1.238,0.62c1.857,1.104,3.364,2.746,4.416,4.631c0.215,0.376,0.43,0.78,0.727,1.076
	c1.103,1.023,3.123-0.753,4.146-1.292c0.915-0.458,1.83-0.888,2.746-1.319c0.161-0.108,0.351-0.216,0.512-0.323
	c0.565-0.404,0.995-0.243,1.185,0.431c1.454,4.684,4.281,9.53,6.354,14.053c1.642,3.581,2.261,8.643,6.245,4.873
	c0.915-0.888,1.777-1.803,2.692-2.692c1.023-0.996,2.1-1.965,3.123-2.988c0.512-0.512,1.023-1.05,1.508-1.589
	c0.404-0.404,0.754-0.861,1.158-1.238c0.538-0.539,1.157-0.996,1.642-1.562c1.347-1.561,2.665-3.15,3.958-4.738
	c0.674-0.835,1.292-1.723,1.911-2.585c0.432-0.592,0.862-1.211,1.266-1.831c0.646-0.996,1.319-1.992,1.912-3.069
	c0.403-0.754,0.699-1.615,0.995-2.45c0.404-1.023,0.781-2.073,1.158-3.123c0.027-0.054,0.027-0.108,0.027-0.161
	c0.161-0.62,0.323-1.266,0.457-1.885c0.054-0.188,0.107-0.377,0.135-0.592c0.215-1.481,0.35-2.962,0.646-4.416
	c0.216-0.969-0.107-1.319-1.266-0.942c-0.188,0.081-0.35,0.215-0.539,0.296c-0.646,0.296-1.292,0.619-1.938,0.889
	c-0.673,0.269-1.347,0.511-2.02,0.753c-0.78,0.296-1.535,0.566-2.289,0.835c-0.969,0.296-1.965,0.565-2.906,0.915
	c-1.805,0.7-3.689,1.077-5.627,1.185c-0.351,0.027-0.62-0.054-0.7-0.458c-0.081-0.377,0.161-0.565,0.483-0.7
	c0.351-0.161,0.7-0.296,1.023-0.511c0.512-0.269,0.97-0.593,1.454-0.916c0.188-0.134,0.404-0.242,0.592-0.377
	c7.431-5.492,14.808-10.499,21.674-16.18c5.143-4.227,10.016-8.858,14.403-14.35c0.243-0.296,0.458-0.619,0.673-0.916
	c0.97-1.292,1.966-2.557,2.908-3.85c0.539-0.727,1.05-1.48,1.535-2.234c0.511-0.781,1.022-1.562,1.48-2.369
	c0.646-1.158,1.238-2.343,1.857-3.527c0.35-0.673,0.727-1.347,1.077-2.02c0.269-0.538,0.539-1.103,0.78-1.669
	c0.889-2.1,1.669-4.254,2.45-6.381c0.27-0.673,0.431-1.373,0.646-2.072c0.35-1.051,0.699-2.128,1.05-3.204
	c0.054-0.135,0.054-0.323,0.107-0.485c0.242-1.373,0.512-2.773,0.781-4.146c0-0.054,0.027-0.081,0.027-0.108
	c0.134-0.619,0.242-1.238,0.349-1.858c0.054-0.35,0.081-0.727,0.135-1.103c0.108-0.754,0.297-1.535,0.378-2.316
	c0.161-1.588,0.296-3.177,0.403-4.738c0.081-0.916,0.134-1.831,0.161-2.719c0.027-0.512,0.027-1.05,0.027-1.562
	C677.423,19.179,677.37,17.778,677.289,16.378 M617.089,51.729c-1.48,2.423-2.962,4.846-4.335,7.323
	c-1.346,2.423-2.529,4.954-3.796,7.431c-0.646,1.238-1.318,2.504-1.911,3.769c-0.35,0.7-0.565,1.427-0.889,2.127
	c-0.377,0.942-0.834,1.858-1.211,2.773c-0.377,0.888-0.673,1.804-1.023,2.692c-0.27,0.727-0.593,1.454-0.889,2.208
	c-0.404,1.023-0.808,2.046-1.211,3.069c-0.081,0.216-0.216,0.431-0.297,0.646c-0.134,0.323-0.27,0.646-0.376,0.97
	c-0.162,0.376-0.297,0.753-0.431,1.13c-0.055,0.108-0.136,0.189-0.162,0.296c-0.27,0.889-0.538,1.804-0.808,2.72
	c-0.081,0.215-0.162,0.457-0.243,0.673c-0.026,0.027-0.054,0.054-0.079,0.08c-0.351,1.104-0.728,2.181-1.077,3.258
	c-0.081,0.243-0.136,0.512-0.216,0.754c-0.136,0.485-0.297,0.969-0.459,1.427c-0.053,0.188-0.106,0.377-0.188,0.511
	c-0.323,0.485-1.131,2.989-1.158,3.581c0,0.054,0,0.108-0.026,0.162c-0.323,0.996-0.674,1.965-0.97,2.961
	c-0.106,0.27-0.161,0.593-0.215,0.889c-0.054,0.323,0.054,0.727-0.135,0.915c-0.7,0.781-0.457,1.804-0.834,2.666
	c-0.135,0.269-0.35,0.565-0.62,0.699c-0.35,0.162-0.754,0.054-1.104-0.242c-0.698-0.565-1.291-1.292-2.152-1.669
	c-0.377-0.161-0.728-0.511-0.997-0.862c-0.323-0.43-0.323-0.915-0.08-1.4c0.054-0.107,0.161-0.188,0.188-0.296
	c0.322-1.13,0.673-2.261,0.942-3.419c0.107-0.485,0.027-0.996,0.351-1.454c0.215-0.296,0.215-0.7,0.322-1.05
	c0.08-0.35,0.135-0.7,0.27-1.023c0.161-0.458,0-0.754-0.485-0.808c-0.296-0.053-0.592-0.053-0.888-0.026
	c-0.593,0.08-1.104-0.054-1.67-0.243c-0.673-0.215-1.426-0.188-2.126-0.269c-0.297-0.027-0.62-0.081-0.916-0.135
	c-0.754-0.107-1.509-0.215-2.234-0.35c-0.539-0.107-1.05-0.242-1.562-0.323c-0.728-0.08-1.454-0.08-2.154-0.161
	c-0.35-0.027-0.728-0.108-1.077-0.162c-0.619-0.107-1.211-0.242-1.83-0.35c-0.942-0.215-1.912-0.403-2.854-0.619
	c-0.189-0.054-0.351-0.242-0.566-0.404c0.135-0.188,0.243-0.323,0.35-0.484c0.108-0.135,0.243-0.27,0.323-0.431
	c0.323-0.727,0.647-1.481,0.971-2.208c0.377-0.861,0.779-1.696,1.184-2.531c0.539-1.104,1.077-2.207,1.643-3.284
	c0.351-0.673,0.78-1.319,1.185-1.993c0.484-0.834,1.185-1.48,1.535-2.449c0.296-0.781,0.941-1.454,1.48-2.127
	c1.023-1.32,2.073-2.639,3.149-3.931c0.403-0.485,0.916-0.889,1.427-1.293c0.862-0.726,1.75-1.453,2.639-2.126
	c0.377-0.27,0.835-0.404,1.211-0.647c0.997-0.592,1.993-1.211,2.989-1.803c0.323-0.189,0.728-0.27,1.077-0.404
	c0.754-0.269,1.508-0.592,2.288-0.862c0.941-0.296,1.885-0.592,2.854-0.834c0.942-0.243,1.912-0.404,2.854-0.647
	c0.673-0.188,1.131-0.7,1.427-1.319c0.296-0.592,0.511-1.265,0.809-1.884c0.673-1.347,1.399-2.693,2.072-4.066
	c0.619-1.292,1.211-2.611,1.857-3.877c0.565-1.103,1.185-2.154,1.804-3.23c0.592-1.05,1.186-2.127,1.831-3.15
	c0.054-0.081,0.108-0.162,0.161-0.243c0.889-1.427,1.777-2.854,2.693-4.254c0.915-1.427,1.829-2.853,2.826-4.226
	c0.7-1.024,1.534-1.939,2.315-2.908c0.673-0.808,1.319-1.642,2.019-2.423c0.835-0.943,1.669-1.885,2.559-2.773
	c1.454-1.427,2.908-2.827,4.388-4.2c0.647-0.619,1.4-1.131,2.1-1.696c0.755-0.593,1.481-1.212,2.235-1.777
	c0.404-0.297,0.809-0.566,1.211-0.835c0.377-0.269,0.754-0.538,1.158-0.808c0.862-0.592,1.75-1.184,2.639-1.804
	c0.323-0.215,0.619-0.43,0.97-0.619c0.835-0.457,1.669-0.888,2.53-1.319c1.104-0.592,2.234-1.211,3.365-1.777
	c0.619-0.323,1.265-0.592,1.911-0.861c0.62-0.297,1.212-0.62,1.858-0.862c1.157-0.431,2.315-0.861,3.5-1.238
	c1.534-0.485,3.122-0.916,4.657-1.4c3.042-0.916,6.139-1.508,9.288-1.858c1.697-0.162,1.886-0.054,2.154,1.615
	c0.296,1.939,0.566,3.85,0.835,5.762c0.081,0.619-0.189,0.996-0.808,1.104c-1.211,0.215-2.424,0.323-3.608,0.592
	c-2.557,0.592-5.115,1.238-7.646,1.885c-0.646,0.188-1.211,0.538-1.83,0.78c-1.157,0.431-2.343,0.808-3.499,1.239
	c-0.728,0.269-1.454,0.565-2.154,0.861c-0.646,0.296-1.267,0.646-1.912,0.996c-0.754,0.377-1.481,0.754-2.234,1.158
	c-0.27,0.135-0.539,0.243-0.808,0.377c-0.162,0.054-0.323,0.081-0.458,0.162c-0.35,0.215-0.7,0.43-1.05,0.673
	c-0.673,0.404-1.346,0.834-2.02,1.265c-0.888,0.565-1.804,1.131-2.719,1.696c-0.188,0.108-0.377,0.189-0.512,0.323
	c-0.969,0.727-1.911,1.454-2.827,2.208c-0.728,0.565-1.4,1.185-2.1,1.777c-0.512,0.404-0.996,0.835-1.48,1.238
	c-0.997,0.889-2.047,1.723-3.016,2.666c-0.754,0.7-1.4,1.534-2.101,2.288c-0.834,0.942-1.723,1.885-2.531,2.854
	c-0.779,0.916-1.507,1.885-2.233,2.827c-0.566,0.7-1.131,1.427-1.644,2.154c-0.377,0.538-0.726,1.077-1.103,1.642
	C618.302,49.816,617.682,50.759,617.089,51.729"/>
</svg>
