<?xml version="1.0" standalone="no"?>
<!DOCTYPE svg PUBLIC "-//W3C//DTD SVG 20010904//EN"
 "http://www.w3.org/TR/2001/REC-SVG-20010904/DTD/svg10.dtd">
<svg version="1.0" xmlns="http://www.w3.org/2000/svg"
 width="512.000000pt" height="512.000000pt" viewBox="0 0 512.000000 512.000000"
 preserveAspectRatio="xMidYMid meet">
<metadata>
Created by potrace 1.14, written by Peter Selinger 2001-2017
</metadata>
<g transform="translate(0.000000,512.000000) scale(0.100000,-0.100000)"
fill="#000000" stroke="none">
<path d="M4425 5109 c-141 -15 -183 -21 -230 -34 -27 -8 -84 -22 -125 -31
-302 -67 -715 -307 -936 -544 -115 -124 -234 -270 -234 -289 0 -5 -4 -11 -8
-13 -8 -3 -107 -164 -168 -273 -21 -38 -44 -79 -51 -90 -13 -22 -16 -27 -46
-95 -11 -25 -32 -72 -47 -105 -14 -33 -32 -75 -40 -93 -13 -34 -57 -75 -70
-67 -4 3 -46 -6 -93 -20 -321 -93 -517 -298 -805 -843 -51 -97 -53 -104 -39
-126 8 -12 21 -23 29 -23 20 -1 111 -14 128 -18 8 -2 38 -7 65 -10 28 -4 93
-13 145 -21 120 -20 134 -22 195 -28 72 -8 76 -18 50 -133 -12 -54 -20 -103
-18 -108 2 -6 35 -21 74 -35 80 -27 140 -74 184 -144 33 -52 64 -60 107 -27
39 31 138 75 147 65 4 -5 16 -31 26 -59 10 -27 53 -122 95 -210 43 -88 82
-176 89 -195 22 -68 48 -100 82 -100 28 0 55 23 213 182 254 256 368 412 425
583 34 102 57 243 42 258 -6 6 -27 1 -58 -13 -72 -34 -298 -109 -353 -116 -63
-8 -71 8 -18 39 65 38 481 342 620 453 305 243 537 521 681 815 57 115 142
340 153 404 6 34 14 78 24 125 32 157 41 358 27 589 -6 94 -52 325 -70 348
-10 13 -79 14 -192 2z m9 -237 c3 -6 8 -27 11 -48 4 -22 10 -66 15 -99 5 -33
6 -63 2 -67 -9 -9 -32 -15 -87 -23 -67 -10 -266 -65 -351 -98 -369 -142 -708
-416 -941 -762 -204 -303 -403 -726 -558 -1185 -61 -183 -95 -287 -99 -312 -7
-42 -40 -118 -50 -118 -7 0 -25 10 -39 23 -14 12 -38 30 -52 41 -20 13 -25 24
-21 40 65 231 64 225 47 230 -17 5 -102 18 -136 21 -23 2 -152 21 -245 37 -36
6 -75 15 -88 19 l-23 9 19 37 c11 21 35 70 52 108 78 171 225 376 322 451 102
78 221 133 358 164 30 7 61 17 68 23 6 5 44 75 82 154 100 205 154 299 297
514 24 36 51 74 61 85 9 11 35 42 57 69 221 275 589 522 923 621 113 33 103
30 207 52 107 22 161 26 169 14z"/>
<path d="M2527 4744 c-1 -1 -56 -4 -122 -8 -66 -3 -131 -8 -145 -10 -14 -3
-43 -7 -65 -11 -383 -55 -777 -233 -1090 -490 -365 -300 -642 -738 -765 -1210
-29 -110 -58 -267 -65 -350 -2 -22 -7 -74 -11 -115 -13 -147 -8 -434 11 -531
2 -9 6 -40 10 -70 4 -30 8 -56 10 -59 2 -3 6 -26 9 -53 4 -26 11 -60 17 -75 6
-15 10 -29 10 -32 -2 -29 77 -267 120 -358 21 -46 39 -86 39 -90 0 -4 35 -66
78 -137 43 -72 84 -141 92 -155 8 -14 17 -27 20 -30 3 -3 34 -41 70 -85 99
-121 98 -121 205 -227 203 -202 478 -381 750 -490 137 -55 162 -63 300 -96
199 -49 304 -60 570 -60 329 0 537 39 856 161 105 41 265 122 364 186 49 31
218 152 225 160 3 3 43 40 90 81 46 41 98 90 115 109 16 19 35 39 40 45 180
196 330 435 441 703 20 47 37 93 39 102 2 9 10 36 18 61 24 69 65 239 72 295
4 28 8 61 11 75 20 124 26 414 10 555 -4 39 -9 87 -11 107 -2 21 -9 55 -14 75
-5 21 -13 58 -16 83 -3 25 -10 61 -15 80 -5 19 -12 51 -15 70 -8 50 -81 289
-105 345 l-20 47 -44 -65 c-174 -260 -378 -478 -646 -692 l-68 -54 8 -43 c5
-23 7 -45 5 -48 -4 -6 -14 -101 -20 -194 -3 -38 -10 -99 -16 -135 -108 -671
-577 -1160 -1175 -1226 l-51 -5 23 47 c62 128 12 284 -111 343 -52 25 -147 30
-196 10 -48 -20 -55 -1 -24 59 36 73 77 189 70 201 -10 17 -25 11 -25 -9 0
-10 -7 -24 -15 -31 -8 -7 -15 -17 -15 -22 0 -14 -64 -110 -96 -144 -70 -73
-217 -181 -407 -298 -59 -36 -109 -66 -111 -66 -2 0 -41 -22 -87 -48 -161 -93
-358 -192 -363 -184 -2 4 -1 26 4 48 5 21 12 55 15 74 3 19 15 71 27 115 11
44 22 93 25 109 3 17 14 64 25 105 11 42 22 87 25 101 9 42 90 301 116 370 56
148 134 262 230 337 44 34 23 48 -27 18 -24 -14 -47 -25 -53 -25 -5 0 -15 22
-21 50 -40 171 -243 297 -407 251 -29 -8 -41 -8 -46 1 -9 14 -4 238 6 313 38
282 147 550 311 765 75 98 212 230 300 287 11 7 35 23 54 36 97 63 290 144
380 160 14 3 43 8 65 11 35 6 43 13 62 54 102 216 316 542 467 711 36 41 66
77 66 80 0 4 -12 8 -27 9 -16 1 -39 4 -53 7 -14 3 -74 8 -135 11 -60 3 -125 7
-143 8 -18 1 -33 2 -35 0z"/>
</g>
</svg>
